<?xml version="1.0" encoding="utf-8"?>
<!-- Generator: Adobe Illustrator 19.1.0, SVG Export Plug-In . SVG Version: 6.00 Build 0)  -->
<svg version="1.1" id="Слой_3" xmlns="http://www.w3.org/2000/svg" xmlns:xlink="http://www.w3.org/1999/xlink" x="0px" y="0px"
	 viewBox="0 0 128 128" enable-background="new 0 0 128 128" xml:space="preserve">
<g>
	<path fill="#F7BB83" d="M119.178,51.491l-7.538-13.262c-0.544-0.956-1.889-1.738-2.988-1.738H17.736c-1.1,0-2.36,0.824-2.801,1.832
		L9.178,51.491"/>
	<path fill="#6E4123" d="M9.177,53.492c-0.268,0-0.539-0.055-0.801-0.169c-1.012-0.442-1.474-1.621-1.03-2.634l5.758-13.167
		c0.755-1.729,2.746-3.031,4.633-3.031h90.915c1.832,0,3.82,1.156,4.727,2.749l7.538,13.263c0.546,0.96,0.21,2.182-0.75,2.727
		c-0.959,0.548-2.181,0.211-2.727-0.75l-7.538-13.262c-0.189-0.332-0.867-0.727-1.25-0.727H17.736c-0.304,0-0.847,0.355-0.968,0.633
		L11.01,52.293C10.682,53.044,9.947,53.491,9.177,53.492z"/>
	<path fill="#F7BB83" d="M103.178,26.491l-3.106-6.211c-0.492-0.984-1.795-1.789-2.894-1.789h-13c-1.1,0-2.316,0.843-2.702,1.873
		l-2.298,6.127"/>
	<path fill="#6E4123" d="M79.178,28.492c-0.233,0-0.471-0.042-0.702-0.128c-1.034-0.389-1.559-1.541-1.171-2.575l2.298-6.127
		c0.677-1.808,2.644-3.171,4.575-3.171h13c1.845,0,3.858,1.244,4.684,2.895l3.105,6.211c0.494,0.988,0.094,2.189-0.895,2.684
		c-0.991,0.496-2.189,0.094-2.684-0.895l-3.105-6.211c-0.153-0.307-0.763-0.684-1.105-0.684h-13c-0.264,0-0.736,0.327-0.829,0.574
		l-2.298,6.128C80.749,27.996,79.987,28.491,79.178,28.492z"/>
	<path fill="#F7BB83" d="M46.178,16.491l-3.106-6.211c-0.492-0.984-1.795-1.789-2.894-1.789h-11c-1.1,0-2.477,0.764-3.06,1.696
		l-3.94,6.304"/>
	<path fill="#6E4123" d="M46.18,18.491c-0.734,0-1.441-0.404-1.791-1.105l-3.105-6.211c-0.153-0.307-0.763-0.684-1.105-0.684h-11
		c-0.408,0-1.148,0.41-1.363,0.757l-3.94,6.304c-0.586,0.936-1.818,1.221-2.757,0.636c-0.937-0.586-1.221-1.819-0.636-2.757
		l3.94-6.304c0.955-1.527,2.955-2.636,4.756-2.636h11c1.845,0,3.858,1.244,4.684,2.894l3.105,6.211
		c0.494,0.988,0.094,2.189-0.895,2.684C46.785,18.424,46.479,18.491,46.18,18.491z"/>
	<ellipse fill="#B8CBCD" cx="63.845" cy="114.305" rx="47.667" ry="10.186"/>
	<rect x="85.178" y="36.491" fill="#F7BB83" width="12" height="8"/>
	<path fill="#6E4123" d="M97.178,46.491h-12c-1.105,0-2-0.895-2-2v-8c0-1.104,0.895-2,2-2h12c1.104,0,2,0.896,2,2v8
		C99.178,45.596,98.282,46.491,97.178,46.491z M87.178,42.491h8v-4h-8V42.491z"/>
	<rect x="79.178" y="26.491" fill="#FFFFFF" width="24" height="10"/>
	<path fill="#6E4123" d="M103.178,38.491h-24c-1.105,0-2-0.895-2-2v-10c0-1.104,0.895-2,2-2h24c1.104,0,2,0.896,2,2v10
		C105.178,37.596,104.282,38.491,103.178,38.491z M81.178,34.491h20v-6h-20V34.491z"/>
	<rect x="28.178" y="26.491" fill="#F7BB83" width="12" height="18"/>
	<path fill="#6E4123" d="M40.178,46.491h-12c-1.105,0-2-0.895-2-2v-18c0-1.104,0.895-2,2-2h12c1.104,0,2,0.896,2,2v18
		C42.178,45.596,41.282,46.491,40.178,46.491z M30.178,42.491h8v-14h-8V42.491z"/>
	<rect x="22.178" y="16.491" fill="#FFFFFF" width="24" height="10"/>
	<path fill="#6E4123" d="M46.178,28.491h-24c-1.105,0-2-0.896-2-2v-10c0-1.104,0.895-2,2-2h24c1.104,0,2,0.896,2,2v10
		C48.178,27.596,47.282,28.491,46.178,28.491z M24.178,24.491h20v-6h-20V24.491z"/>
	<rect x="9.178" y="51.491" fill="#F7BB83" width="110" height="56"/>
	<path fill="#6E4123" d="M119.178,109.491h-110c-1.105,0-2-0.896-2-2v-56c0-1.104,0.895-2,2-2h110c1.104,0,2,0.896,2,2v56
		C121.178,108.596,120.282,109.491,119.178,109.491z M11.178,105.491h106v-52h-106V105.491z"/>
	<circle fill="#FFFFFF" cx="37.178" cy="79.491" r="22"/>
	<path fill="#6E4123" d="M37.178,103.491c-13.233,0-24-10.767-24-24s10.767-24,24-24c13.233,0,24,10.767,24,24
		S50.411,103.491,37.178,103.491z M37.178,59.491c-11.028,0-20,8.972-20,20s8.972,20,20,20c11.028,0,20-8.972,20-20
		S48.206,59.491,37.178,59.491z"/>
	<circle fill="#6E4123" cx="37.178" cy="63.491" r="2"/>
	<circle fill="#6E4123" cx="37.178" cy="63.491" r="2"/>
	<circle fill="#6E4123" cx="22.177" cy="80.488" r="2"/>
	<circle fill="#6E4123" cx="37.178" cy="95.491" r="2"/>
	<circle fill="#6E4123" cx="52.178" cy="80.49" r="2"/>
	<path fill="#6E4123" d="M44.178,82.491h-7c-1.105,0-2-0.896-2-2v-10c0-1.104,0.895-2,2-2c1.104,0,2,0.896,2,2v8h5
		c1.104,0,2,0.896,2,2S45.282,82.491,44.178,82.491z"/>
	<circle fill="#FFFFFF" cx="91.178" cy="79.491" r="22"/>
	<path fill="#6E4123" d="M91.178,103.491c-13.233,0-24-10.767-24-24s10.767-24,24-24c13.233,0,24,10.767,24,24
		S104.411,103.491,91.178,103.491z M91.178,59.491c-11.028,0-20,8.972-20,20s8.972,20,20,20c11.028,0,20-8.972,20-20
		S102.206,59.491,91.178,59.491z"/>
	<path fill="#6E4123" d="M86.844,88.435c-0.468,0-0.938-0.163-1.317-0.496c-0.83-0.728-0.914-1.991-0.186-2.822l3.837-4.378V70.491
		c0-1.104,0.895-2,2-2c1.104,0,2,0.896,2,2v11c0,0.485-0.176,0.953-0.496,1.318l-4.333,4.944
		C87.953,88.205,87.4,88.435,86.844,88.435z"/>
	<rect x="18.178" y="107.491" fill="#F7BB83" width="17" height="12"/>
	<path fill="#6E4123" d="M35.178,121.491h-17c-1.105,0-2-0.896-2-2v-12c0-1.104,0.895-2,2-2h17c1.104,0,2,0.896,2,2v12
		C37.178,120.596,36.282,121.491,35.178,121.491z M20.178,117.491h13v-8h-13V117.491z"/>
	<rect x="93.178" y="107.491" fill="#F7BB83" width="17" height="12"/>
	<path fill="#6E4123" d="M110.178,121.491h-17c-1.105,0-2-0.896-2-2v-12c0-1.104,0.895-2,2-2h17c1.104,0,2,0.896,2,2v12
		C112.178,120.596,111.282,121.491,110.178,121.491z M95.178,117.491h13v-8h-13V117.491z"/>
	<path fill="#6E4123" d="M42.178,8.491l4,8v10h-6v10h39h6h-6v-10l3-8h17l4,8v10h-6h13.474l8.526,15v56h-9v12h-17v-12h-58v12h-17v-12
		h-9v-56l6.559-15h12.441v-10h-6v-10l5-8H42.178 M42.178,4.491h-15c-1.379,0-2.661,0.711-3.392,1.88l-5,8
		c-0.397,0.636-0.608,1.37-0.608,2.12v10c0,2.209,1.791,4,4,4h2v2h-8.441c-1.59,0-3.028,0.941-3.665,2.398l-6.559,15
		c-0.221,0.506-0.335,1.051-0.335,1.602v56c0,2.209,1.791,4,4,4h5v8c0,2.209,1.791,4,4,4h17c2.209,0,4-1.791,4-4v-8h50v8
		c0,2.209,1.791,4,4,4h17c2.209,0,4-1.791,4-4v-8h5c2.209,0,4-1.791,4-4v-56c0-0.693-0.18-1.374-0.523-1.977l-8.526-15
		c-0.711-1.251-2.039-2.023-3.478-2.023h-3.474v-6c0-0.621-0.145-1.233-0.422-1.789l-4-8c-0.678-1.354-2.063-2.211-3.578-2.211h-17
		c-1.667,0-3.16,1.034-3.745,2.596l-3,8c-0.169,0.449-0.255,0.925-0.255,1.404v6h-31v-2h2c2.209,0,4-1.791,4-4v-10
		c0-0.621-0.145-1.233-0.422-1.789l-4-8C45.078,5.348,43.692,4.491,42.178,4.491L42.178,4.491z"/>
	<circle fill="#6E4123" cx="91.18" cy="63.491" r="2"/>
	<circle fill="#6E4123" cx="76.179" cy="80.488" r="2"/>
	<circle fill="#6E4123" cx="91.18" cy="95.491" r="2"/>
	<circle fill="#6E4123" cx="106.18" cy="80.49" r="2"/>
</g>
</svg>
