<?xml version="1.0" encoding="iso-8859-1"?>
<!-- Generator: Adobe Illustrator 19.0.0, SVG Export Plug-In . SVG Version: 6.00 Build 0)  -->
<svg version="1.1" id="Layer_1" xmlns="http://www.w3.org/2000/svg" xmlns:xlink="http://www.w3.org/1999/xlink" x="0px" y="0px"
	 viewBox="0 0 426.688 426.688" style="enable-background:new 0 0 426.688 426.688;" xml:space="preserve">
<path style="fill:#6AC259;" d="M384.465,220.38c-14.652,0-27.541,7.458-35.11,18.761c-0.026,0.06-0.06,0.115-0.085,0.141
	c-0.226,0.337-0.448,0.678-0.666,1.045c-2.035,2.842-5.385,4.693-9.152,4.693c-6.217,0-11.251-5.035-11.251-11.221V98.477H192.909
	c-6.217,0-11.251-5.039-11.251-11.255c0-3.857,1.933-7.258,4.89-9.284c0.316-0.226,0.649-0.422,1.015-0.619
	c11.307-7.599,18.735-20.484,18.735-35.11c0-23.326-18.876-42.202-42.193-42.202c-23.326,0-42.202,18.876-42.202,42.202
	c0,14.656,7.45,27.541,18.756,35.11c0.06,0.026,0.115,0.06,0.141,0.085c0.341,0.226,0.674,0.448,1.041,0.674
	c2.842,2.027,4.702,5.376,4.702,9.143c0,6.217-5.035,11.255-11.226,11.255H0v135.326c0,6.187,5.035,11.221,11.251,11.221
	c3.767,0,7.117-1.852,9.152-4.693c0.218-0.367,0.448-0.708,0.674-1.045c0.026-0.026,0.051-0.085,0.085-0.141
	c7.565-11.302,20.45-18.761,35.11-18.761c23.317,0,42.202,18.88,42.202,42.202c0,23.317-18.884,42.193-42.202,42.193
	c-14.635,0-27.516-7.42-35.11-18.735c-0.201-0.358-0.401-0.7-0.623-1.007c-2.027-2.957-5.423-4.894-9.284-4.894
	c-6.217,0-11.251,5.039-11.251,11.255v135.283H135.33c6.191,0,11.226-5.035,11.226-11.255c0-3.772-1.86-7.117-4.702-9.148
	c-0.367-0.222-0.7-0.444-1.041-0.67c-0.026-0.03-0.085-0.055-0.141-0.09c-11.307-7.565-18.756-20.45-18.756-35.106
	c0-23.322,18.876-42.202,42.202-42.202c23.317,0,42.193,18.88,42.193,42.202c0,14.63-7.424,27.511-18.735,35.106
	c-0.367,0.201-0.7,0.401-1.015,0.623c-2.957,2.031-4.89,5.427-4.89,9.284c0,6.221,5.035,11.255,11.251,11.255h135.3V291.39
	c0-6.217,5.035-11.255,11.251-11.255c3.857,0,7.258,1.937,9.284,4.894c0.226,0.307,0.418,0.649,0.619,1.007
	c7.599,11.311,20.484,18.735,35.11,18.735c23.326,0,42.202-18.876,42.202-42.193C426.667,239.26,407.791,220.38,384.465,220.38z"/>
<g>
</g>
<g>
</g>
<g>
</g>
<g>
</g>
<g>
</g>
<g>
</g>
<g>
</g>
<g>
</g>
<g>
</g>
<g>
</g>
<g>
</g>
<g>
</g>
<g>
</g>
<g>
</g>
<g>
</g>
</svg>
